<svg xmlns="http://www.w3.org/2000/svg" width="1920" height="1280" viewBox="0 0 1920 1280" role="img" aria-labelledby="title desc">
  <title id="title">Industrial visual communication studio</title>
  <desc id="desc">Dark premium production space with illuminated signs, metal panels, fabrication tables, and gold light accents.</desc>
  <defs>
    <linearGradient id="bg" x1="0" x2="1" y1="0" y2="1">
      <stop offset="0" stop-color="#070707"/>
      <stop offset="0.45" stop-color="#171717"/>
      <stop offset="1" stop-color="#030303"/>
    </linearGradient>
    <radialGradient id="glow" cx="62%" cy="32%" r="48%">
      <stop offset="0" stop-color="#D4AF37" stop-opacity="0.38"/>
      <stop offset="0.32" stop-color="#D4AF37" stop-opacity="0.12"/>
      <stop offset="1" stop-color="#D4AF37" stop-opacity="0"/>
    </radialGradient>
    <filter id="soft" x="-20%" y="-20%" width="140%" height="140%">
      <feGaussianBlur stdDeviation="22"/>
    </filter>
    <pattern id="grid" width="82" height="82" patternUnits="userSpaceOnUse">
      <path d="M82 0H0V82" fill="none" stroke="#fff" stroke-opacity="0.045"/>
    </pattern>
  </defs>
  <rect width="1920" height="1280" fill="url(#bg)"/>
  <rect width="1920" height="1280" fill="url(#grid)"/>
  <rect width="1920" height="1280" fill="url(#glow)"/>
  <path d="M0 875h1920v405H0z" fill="#050505"/>
  <path d="M0 875h1920" stroke="#D4AF37" stroke-opacity="0.16"/>
  <g opacity="0.92">
    <path d="M1045 244h574v326h-574z" fill="#111" stroke="#fff" stroke-opacity="0.1"/>
    <path d="M1090 297h481v80h-481z" fill="#050505" stroke="#D4AF37" stroke-opacity="0.34"/>
    <text x="1130" y="352" fill="#F4E7B0" font-family="Arial, sans-serif" font-size="52" font-weight="800" letter-spacing="6">CREAPUB</text>
    <path d="M1090 422h226v92h-226zM1344 422h227v92h-227z" fill="#1f1f1f" stroke="#fff" stroke-opacity="0.08"/>
    <path d="M1126 468h154M1380 468h154" stroke="#D4AF37" stroke-width="8" stroke-linecap="round" opacity="0.65"/>
  </g>
  <g>
    <path d="M850 720h778l122 155H742z" fill="#222" stroke="#fff" stroke-opacity="0.08"/>
    <path d="M936 746h540l48 64H888z" fill="#0b0b0b" stroke="#D4AF37" stroke-opacity="0.18"/>
    <path d="M712 875h1050v78H662z" fill="#121212"/>
    <path d="M720 953h1016v32H692z" fill="#050505"/>
  </g>
  <g opacity="0.95">
    <path d="M286 546h390v462H286z" fill="#121212" stroke="#fff" stroke-opacity="0.1"/>
    <path d="M342 610h278v64H342z" fill="#080808" stroke="#D4AF37" stroke-opacity="0.42"/>
    <text x="374" y="656" fill="#fff" font-family="Arial, sans-serif" font-size="40" font-weight="700" letter-spacing="4">VISIBLE</text>
    <path d="M342 726h278v170H342z" fill="#1a1a1a"/>
    <path d="M372 756h218M372 800h160M372 844h194" stroke="#fff" stroke-opacity="0.14" stroke-width="12" stroke-linecap="round"/>
  </g>
  <g filter="url(#soft)" opacity="0.45">
    <circle cx="1358" cy="348" r="148" fill="#D4AF37"/>
    <circle cx="496" cy="648" r="110" fill="#D4AF37"/>
  </g>
  <g opacity="0.45">
    <path d="M124 1070h1690" stroke="#fff" stroke-opacity="0.08"/>
    <path d="M148 1116h1520" stroke="#fff" stroke-opacity="0.05"/>
    <path d="M168 1162h1660" stroke="#fff" stroke-opacity="0.04"/>
  </g>
</svg>
