<?xml version="1.0" encoding="UTF-8"?>
<svg version="1.1" xmlns="http://www.w3.org/2000/svg" width="996" height="281">
<path d="M0 0 C10.08074463 8.32683129 15.80350054 19.57212668 18.625 32.22265625 C20.21740121 50.14321001 16.49284682 64.89723056 4.9375 78.91015625 C-2.84391537 87.29926311 -14.90709128 94.45234609 -26.55053711 95.3996582 C-39.73907654 95.74330228 -50.37083898 95.22473676 -62.375 89.22265625 C-62.705 100.77265625 -63.035 112.32265625 -63.375 124.22265625 C-71.955 124.22265625 -80.535 124.22265625 -89.375 124.22265625 C-89.42029066 112.92159145 -89.45693909 101.62058752 -89.47862434 90.31945229 C-89.48903525 85.0711694 -89.50314504 79.82295215 -89.52587891 74.57470703 C-89.54770359 69.50427994 -89.55958886 64.43391575 -89.56475449 59.36344528 C-89.56843302 57.43468613 -89.57561603 55.5059302 -89.58646011 53.57719803 C-89.68089464 36.07562685 -88.54075525 20.00665922 -76.375 6.22265625 C-75.80136719 5.55621094 -75.22773437 4.88976562 -74.63671875 4.203125 C-54.66009357 -17.42787908 -22.56080045 -16.88349376 0 0 Z M-56.23828125 22.8046875 C-61.61659673 28.89093482 -63.72528247 35.5249714 -63.57421875 43.54296875 C-62.87348054 52.96858466 -58.26501407 58.95285621 -51.375 65.22265625 C-45.73653172 69.44872715 -39.32166412 70.45518057 -32.375 70.22265625 C-23.70344537 68.89054151 -16.79766023 64.7038295 -11.5 57.72265625 C-6.73719216 50.92816115 -6.60771348 43.21202713 -7.375 35.22265625 C-9.27126067 28.05780771 -13.46012609 21.87844066 -19.59765625 17.71484375 C-32.94885158 10.30926789 -45.42164908 12.39558935 -56.23828125 22.8046875 Z " fill="#370CA2" transform="translate(620.375,102.77734375)"/>
<path d="M0 0 C10.97568489 8.87075902 16.93088355 20.99927051 19.75 34.625 C20.24587409 41.31930027 20.10762229 47.35426627 19 54 C-6.74 54.33 -32.48 54.66 -59 55 C-53.57657759 63.13513361 -48.74936026 68.00730981 -39 70 C-31.92152481 71.02385088 -25.29093669 69.32657107 -19 66 C-18.26724854 65.15695313 -17.53449707 64.31390625 -16.77954102 63.4453125 C-13.26342174 60.35199228 -11.56977207 60.4134091 -6.94921875 60.51171875 C-5.96100883 60.52233086 -5.96100883 60.52233086 -4.95283508 60.53315735 C-2.86319966 60.56099021 -0.77631524 60.62369181 1.3125 60.6875 C2.73498714 60.71259795 4.15751659 60.73540852 5.58007812 60.75585938 C9.05426861 60.81077554 12.5268655 60.89696315 16 61 C13.889925 72.70653039 5.44668545 81.4868226 -3.96875 88.10546875 C-16.75717018 96.09823136 -31.09801805 99.01426528 -45.86645508 95.92163086 C-60.45591324 92.51117518 -72.25036811 84.88953279 -80.3125 72.0625 C-87.9799802 58.41012554 -90.05609462 44.59637366 -87.31640625 29.14453125 C-83.13192035 14.61169017 -74.18989078 2.4979877 -61 -5 C-40.07623507 -14.42665544 -19.03642985 -13.34738185 0 0 Z M-56 24 C-57.32 26.31 -58.64 28.62 -60 31 C-43.17 31 -26.34 31 -9 31 C-13.01601536 23.97197311 -16.96661611 18.42299686 -24.79296875 15.47265625 C-36.79523741 12.90225889 -47.36298451 15.36298451 -56 24 Z " fill="#276CC0" transform="translate(387,102)"/>
<path d="M0 0 C11.26509 9.10466178 18.08270925 22.19601808 19.79626465 36.50654602 C20.22422177 41.74418096 20.12013941 46.998635 20.09765625 52.25 C20.0962413 53.50385498 20.09482635 54.75770996 20.09336853 56.04956055 C20.08874081 59.35717967 20.07978103 62.66474863 20.06866455 65.97235107 C20.05837176 69.35786316 20.05379909 72.74338286 20.04882812 76.12890625 C20.03868768 82.75264373 20.01910695 89.37625811 20 96 C11.42 96 2.84 96 -6 96 C-6.33 94.02 -6.66 92.04 -7 90 C-7.75023437 90.33773437 -8.50046875 90.67546875 -9.2734375 91.0234375 C-25.16567224 97.94876901 -39.55415514 98.83373106 -56 93 C-69.60104767 87.0028129 -79.27519101 76.64558526 -85.25 63.18359375 C-90.24128167 49.61354672 -89.89931986 33.20497913 -84 20 C-76.74922994 5.39398193 -66.20772405 -3.45343159 -50.98046875 -9.0546875 C-33.24756695 -14.67901546 -14.97345975 -10.4986327 0 0 Z M-56 24 C-61.06518564 30.41590181 -63.41347 37.24504659 -62.9375 45.4375 C-61.57573851 54.22009658 -57.19306129 60.79624944 -50.390625 66.37109375 C-44.25092317 70.55451804 -37.35206332 72.08963805 -30 71 C-20.36803395 68.41290168 -14.64975135 64.72451241 -9.29296875 56.296875 C-5.82779125 50.14121225 -5.03327579 43.63052772 -6.46484375 36.7734375 C-9.30569796 26.99014074 -15.17178915 20.85971988 -24 16 C-35.74072838 12.08642387 -47.45606991 15.45606991 -56 24 Z " fill="#270896" transform="translate(502,102)"/>
<path d="M0 0 C8.25 0 16.5 0 25 0 C25 11.88 25 23.76 25 36 C28.63 34.35 32.26 32.7 36 31 C48.46052405 26.48134842 65.07024275 27.47635897 77 33 C90.74409717 40.11155698 100.93528377 51.20459995 105.875 66 C107 71 107 71 108 83 C99.42 83 90.84 83 82 83 C81.01 79.04 80.02 75.08 79 71 C74.59707366 64.10846312 69.76057678 59.01800208 62 56 C53.55629974 54.25532376 46.31903964 54.99520919 38.7734375 59.2578125 C31.76938858 64.05834041 28.23845836 69.64203313 26.5625 77.9375 C25.44526357 86.57167672 27.07128806 92.85546028 32.1796875 99.92578125 C38.28490802 106.88258833 44.95745184 108.5338505 54 111 C54 119.25 54 127.5 54 136 C39.11327343 136 26.34227303 132.13290258 15.1875 121.75 C4.99503934 110.63773191 -0.17711456 97.88455929 -0.11352539 82.98706055 C-0.11367142 82.08900192 -0.11381744 81.1909433 -0.1139679 80.26567078 C-0.11327287 77.30599528 -0.10549965 74.34638321 -0.09765625 71.38671875 C-0.09579061 69.33120254 -0.0943674 67.27568588 -0.09336853 65.22016907 C-0.08955482 59.81642423 -0.0797343 54.41270637 -0.06866455 49.00897217 C-0.0584258 43.49231328 -0.05386563 37.97565003 -0.04882812 32.45898438 C-0.03811101 21.63930917 -0.02052348 10.81966105 0 0 Z " fill="#682DCB" transform="translate(764,62)"/>
<path d="M0 0 C8.58 0 17.16 0 26 0 C26.02578125 4.07085937 26.0515625 8.14171875 26.078125 12.3359375 C26.10985894 15.60684171 26.14551235 18.87765163 26.18379211 22.14848328 C26.22297525 25.58745207 26.25544778 29.02616827 26.27099609 32.46533203 C26.28920838 36.42252691 26.33923374 40.37902937 26.390625 44.3359375 C26.39185364 45.55300385 26.39308228 46.77007019 26.39434814 48.02401733 C26.55014206 57.19254485 27.93631472 64.92466378 34.25 71.875 C40.99005359 77.92962441 47.91250212 80.30418403 57 80 C64.01323669 78.92263425 70.04048741 76.12482967 75 71 C78.92558706 65.28739197 81.10139983 60.20621142 81.20532227 53.2434082 C81.22526749 52.06241043 81.24521271 50.88141266 81.26576233 49.66462708 C81.28247482 48.38955795 81.29918732 47.11448883 81.31640625 45.80078125 C81.3475779 43.84279854 81.3475779 43.84279854 81.37937927 41.84526062 C81.43452273 38.37817647 81.48396595 34.91103354 81.53222656 31.44384766 C81.5824981 27.9045694 81.63810262 24.36537523 81.69335938 20.82617188 C81.80135046 13.88417911 81.90043316 6.94213921 82 0 C90.58 0 99.16 0 108 0 C108.06313844 7.75667457 108.12321635 15.51240311 108.15525055 23.26911163 C108.17100684 26.88223922 108.19201574 30.49515115 108.22631836 34.1081543 C108.25922567 37.59654017 108.27691805 41.08471864 108.28463173 44.57324791 C108.29276668 46.53334273 108.31613435 48.49335562 108.33988953 50.45332336 C108.34282634 66.27104091 103.54984991 80.17933055 92.484375 91.74609375 C78.85550987 104.11064592 64.25686962 106.79995193 46.56396484 106.17480469 C33.05809635 105.25400847 21.51422184 97.56350129 12.36328125 88.00390625 C9.61416098 84.5095699 7.5120736 80.9539964 5.5 77 C5.17362549 76.36006104 4.84725098 75.72012207 4.51098633 75.06079102 C-0.05574129 65.42289288 -0.28285868 55.6246932 -0.1953125 45.1171875 C-0.1924826 43.82177032 -0.18965271 42.52635315 -0.18673706 41.19168091 C-0.17917608 37.78210435 -0.15959446 34.3727038 -0.1373291 30.9631958 C-0.11670627 27.47028017 -0.10759019 23.97733468 -0.09765625 20.484375 C-0.07740631 13.6560956 -0.03824186 6.82829673 0 0 Z " fill="#5023B8" transform="translate(646,92)"/>
<path d="M0 0 C0 8.58 0 17.16 0 26 C-3.63 26.66 -7.26 27.32 -11 28 C-14.15874656 29.59936535 -17.02058351 31.15925159 -20 33 C-20.70253906 33.2990625 -21.40507812 33.598125 -22.12890625 33.90625 C-24.49493295 35.28931363 -24.96416197 36.49557384 -26 39 C-26.34160156 39.66 -26.68320312 40.32 -27.03515625 41 C-27.37417969 41.66 -27.71320313 42.32 -28.0625 43 C-28.40410156 43.66 -28.74570312 44.32 -29.09765625 45 C-30.82684998 48.83267181 -31.13813924 52.31838682 -31.20532227 56.50292969 C-31.22526749 57.60376892 -31.24521271 58.70460815 -31.26576233 59.83880615 C-31.28247482 61.02121887 -31.29918732 62.20363159 -31.31640625 63.421875 C-31.33718735 64.63699768 -31.35796844 65.85212036 -31.37937927 67.10406494 C-31.44476828 70.98598573 -31.50371051 74.8679742 -31.5625 78.75 C-31.60569532 81.38151742 -31.64930994 84.01302799 -31.69335938 86.64453125 C-31.80122783 93.0962858 -31.90038118 99.54809167 -32 106 C-40.58 106 -49.16 106 -58 106 C-58 71.35 -58 36.7 -58 1 C-49.42 1 -40.84 1 -32 1 C-31.67 3.31 -31.34 5.62 -31 8 C-30.41734375 7.67386719 -29.8346875 7.34773438 -29.234375 7.01171875 C-19.42850942 1.78500738 -11.15718454 0 0 0 Z " fill="#2B8DD1" transform="translate(299,91)"/>
<path d="M0 0 C8.58 0 17.16 0 26 0 C26.66 3.3 27.32 6.6 28 10 C31.25439368 18.19625075 35.74967737 22.75495719 43.8125 26.375 C51.98305356 29.31689372 58.85931972 28.72056251 66.7421875 25.19921875 C71.13145354 22.86789578 74.33740012 20.5950009 76.3046875 15.859375 C79 13 79 13 81.85107422 12.51513672 C85.50057774 12.40808737 89.10191749 12.47877675 92.75 12.625 C94.01972656 12.65207031 95.28945312 12.67914063 96.59765625 12.70703125 C99.73347906 12.7777641 102.86588663 12.87643508 106 13 C104.63581332 24.76072519 98.33150772 34.51397435 89.42578125 42.23046875 C77.44329601 51.34125995 64.17435605 56.3715702 49 55 C32.90179735 52.74359704 19.9974953 46.28674117 9.8984375 33.296875 C2.7766549 22.68996474 0 12.68748554 0 0 Z " fill="#2FA4DD" transform="translate(124,144)"/>
<path d="M0 0 C16.03772844 0 27.99206822 4.62183107 39.640625 15.546875 C46.48003453 22.65804915 53 31.81359029 53 42 C48.62590199 42.23299846 44.25340109 42.374647 39.875 42.5 C38.6375 42.56703125 37.4 42.6340625 36.125 42.703125 C27.09651452 42.89728598 27.09651452 42.89728598 23.87963867 40.26489258 C22.38025174 38.2416041 21.19893092 36.20919478 20 34 C13.98106432 28.28972769 8.19107214 27.02388402 0 26 C0 17.42 0 8.84 0 0 Z " fill="#2D9CD9" transform="translate(177,91)"/>
<path d="M0 0 C0 7.59 0 15.18 0 23 C-5.64147604 23.7137882 -11.2830697 24.42645646 -16.92504883 25.13623047 C-18.84472921 25.37807741 -20.76432627 25.62058678 -22.68383789 25.86376953 C-25.44135291 26.2130025 -28.19915789 26.55985971 -30.95703125 26.90625 C-31.81649857 27.0156189 -32.67596588 27.12498779 -33.56147766 27.2376709 C-34.36208115 27.33777466 -35.16268463 27.43787842 -35.98754883 27.54101562 C-37.04344963 27.67425232 -37.04344963 27.67425232 -38.12068176 27.81018066 C-40 28 -40 28 -43 28 C-43 20.41 -43 12.82 -43 5 C-23.35535038 1.97774621 -23.35535038 1.97774621 -13.625 0.8125 C-12.9431665 0.72887207 -12.26133301 0.64524414 -11.55883789 0.55908203 C-7.63826584 0.10428198 -3.97896762 0 0 0 Z " fill="#276BBF" transform="translate(374,55)"/>
</svg>
